Coordinates
version=1
nRows=16
nColumns=36
inDegrees=yes

Units are S.I. units (second, meters, Newtons, ...)
If the header above contains a line with 'inDegrees', this indicates whether rotational values are in degrees (yes) or radians (no).

endheader
time	pelvis_tilt	pelvis_list	pelvis_rotation	pelvis_tx	pelvis_ty	pelvis_tz	hip_flexion_r	hip_adduction_r	hip_rotation_r	knee_angle_r	knee_angle_r_beta	ankle_angle_r	subtalar_angle_r	mtp_angle_r	hip_flexion_l	hip_adduction_l	hip_rotation_l	knee_angle_l	knee_angle_l_beta	ankle_angle_l	subtalar_angle_l	mtp_angle_l	lumbar_extension	lumbar_bending	lumbar_rotation	arm_flex_r	arm_add_r	arm_rot_r	elbow_flex_r	pro_sup_r	arm_flex_l	arm_add_l	arm_rot_l	elbow_flex_l	pro_sup_l
     30.45000000	     -0.79223958	      2.02929627	     -1.36157918	      1.00453654	      0.92564620	      0.72146869	     17.91786524	     -0.12380554	      9.40496449	     57.12165088	      0.99696088	      1.82162617	    -16.72963859	     -7.49999987	      4.86264016	      2.39012820	      1.38705417	     18.28247095	      0.31908931	      9.57949329	     -6.29500893	     -7.49999987	    -11.87103785	     -2.10078354	      3.97393686	      4.92464877	    -13.43040944	     15.43106781	     23.79610903	     78.91502884	      7.98308585	     -9.62198683	      2.48854901	     23.82130119	     76.47772801
     30.46666670	     -1.16909953	      1.43435050	     -1.35058534	      1.00029584	      0.92668546	      0.72104005	     19.99277795	      0.09807093	      8.76145437	     53.66937562	      0.93670731	      2.97006888	    -16.94737158	     -7.49999987	      3.76985496	      1.83131772	      1.36914949	     17.28435785	      0.30166895	      9.78535907	     -5.97790104	     -7.49999987	    -12.15283009	     -1.28198050	      3.24403914	      4.66373271	    -13.48534705	     15.18376529	     23.72749100	     78.94961992	      8.96659711	     -9.80886804	      2.62240454	     24.51656050	     76.59920710
     30.48333330	     -1.05075725	      0.83267025	     -1.26009360	      0.99610804	      0.92763539	      0.72120074	     21.24041929	      0.12851087	      7.88069614	     49.42776082	      0.86267717	      3.97922264	    -16.56548134	     -7.49999987	      2.18728167	      1.21892933	      1.27251900	     16.36579746	      0.28563705	     10.24673534	     -5.24376833	     -7.49999987	    -13.22473113	     -0.34773187	      2.67808039	      4.48397167	    -13.19320526	     11.29419133	     24.03181213	     83.73978374	     10.20743412	    -10.23074870	      2.96149914	     25.48509795	     80.67183608
     30.50000000	     -1.60957602	      0.45826345	     -1.32930537	      0.99247850	      0.92742044	      0.72166986	     23.16699650	     -0.05102767	      7.24267210	     44.73928366	      0.78084780	      4.51576421	    -16.05052027	     -7.49999987	      1.45342111	      0.84044122	      1.28913721	     15.64891258	      0.27312505	     10.54270969	     -5.18962035	     -7.49999987	    -13.45998389	      0.19154495	      2.13727988	      4.52773322	    -13.25612932	     11.14896978	     24.20901738	     83.60367137	     11.27563388	    -10.49461561	      3.01622941	     26.39351794	     80.61348819
     30.51666670	     -1.95351282	      0.07201193	     -1.31722035	      0.98890083	      0.92714025	      0.72166935	     24.66247472	     -0.31835038	      6.57252981	     39.42657939	      0.68812362	      4.71276774	    -15.02578719	     -7.49999987	      0.70346183	      0.44901967	      1.43437841	     15.18421552	      0.26501456	     11.27581695	     -4.94410424	     -7.49999987	    -14.15574228	      0.80335680	      1.44513854	      4.67402555	    -13.43611703	     10.77252036	     24.56342634	     83.07313506	     12.40329896	    -10.84863337	      3.30071051	     28.02225366	     80.33554879
     30.53333330	     -2.06692075	     -0.05685391	     -1.27387944	      0.98535865	      0.92613882	      0.72192063	     25.76010733	     -0.84175848	      6.10288267	     33.81153802	      0.59012266	      4.82307295	    -13.18761479	     -7.49999987	     -0.11642377	      0.34571455	      2.00075578	     14.83236617	      0.25887363	     11.71996215	     -5.35774643	     -7.49999987	    -15.32468547	      1.03176480	      0.38305704	      5.14567164	    -13.35711665	      9.90334310	     24.59118734	     83.20194958	     13.49110187	    -11.60178367	      4.34415520	     29.85167816	     80.97736023
     30.55000000	     -2.80622396	      0.13856171	     -1.37486477	      0.98142897	      0.92249257	      0.72289866	     27.50188414	     -1.51122701	      6.20610732	     28.21569102	      0.49245671	      4.45293067	    -11.53067819	     -7.49999987	     -0.15711089	      0.50717612	      2.39353398	     14.63209575	      0.25537825	     12.20588082	     -5.62444885	     -7.49999987	    -15.50519505	      0.78732861	     -0.32705698	      5.07929110	    -13.43840086	      9.72283334	     24.82417156	     83.16565392	     14.80571578	    -12.06256355	      4.48498383	     30.58869512	     81.06012836
     30.56666670	     -3.14030877	      0.10602504	     -1.16425749	      0.97669032	      0.91753947	      0.72423536	     28.54094700	     -2.23826720	      5.32950425	     22.42544994	      0.39139794	      5.02068197	     -7.87430157	     -7.49999987	     -0.64342732	      0.42677078	      3.21153944	     14.49595550	      0.25300215	     12.45490265	     -6.38862058	     -7.49999987	    -16.23892949	      1.05111733	     -1.28912454	      5.23694932	    -13.46482481	      8.44176069	     24.83064393	     83.15023573	     15.83713556	    -13.05802146	      6.84079923	     32.29556076	     81.93801037
     30.58333330	     -3.73568961	      0.25791775	     -1.10096696	      0.97282465	      0.91101886	      0.72767017	     29.91764297	     -2.87952694	      5.02449509	     17.08949404	      0.29826794	      5.90753314	     -4.52399567	     -7.49999987	     -0.87255463	      0.44992735	      3.60029822	     14.64009696	      0.25551789	     12.88079143	     -6.69290833	     -7.49999987	    -16.38308298	      0.98484675	     -2.02651941	      5.21399906	    -13.43574278	      7.69273855	     25.25801473	     83.30491388	     17.21971196	    -13.92422833	      8.69657430	     32.80280584	     82.43938048
     30.60000000	     -4.44264472	      0.31004692	     -0.96309261	      0.97176732	      0.90469271	      0.73177932	     31.32786973	     -3.31891369	      4.68651134	     12.41451050	      0.21667408	      7.48452957	     -0.81103716	     -7.49999987	     -1.07239823	      0.35539939	      4.07107739	     14.97718058	      0.26140111	     13.63752508	     -7.34058077	     -7.49999987	    -16.11292058	      1.06789852	     -2.99607120	      5.21842884	    -13.30336217	      7.09641823	     25.60032869	     82.72417497	     18.19499310	    -14.76127319	      9.64749784	     33.49108829	     82.10688895
     30.61666670	     -5.19292439	      0.12208475	     -0.96195267	      0.97310682	      0.89942077	      0.73581909	     32.72010473	     -3.24380495	      4.76198337	      8.91378837	      0.15557496	      9.11403375	      2.38032591	     -7.49999987	     -1.30176880	     -0.08345456	      3.90518606	     15.52576428	      0.27097571	     15.23203545	     -7.16400080	     -7.49999987	    -15.38069442	      1.35599634	     -3.39074589	      4.74921185	    -13.14772492	      5.12573584	     26.11910159	     85.66550797	     19.26993138	    -15.61580284	     12.14688356	     33.55521655	     83.51984123
     30.63333330	     -5.83544935	     -0.32439468	     -1.04198451	      0.97521911	      0.89615349	      0.73929751	     33.88391972	     -2.70907660	      4.99151205	      6.92058964	      0.12078708	     10.29214285	      4.76492841	     -7.49999987	     -1.70100657	     -0.84802235	      3.52728310	     16.14505326	      0.28178434	     17.14086919	     -6.85048282	     -7.49999987	    -14.47695427	      1.92037580	     -4.12729444	      4.76280666	    -13.13510517	      5.26784184	     25.79010131	     85.16799299	     19.52186957	    -16.32675783	     13.05809778	     33.73594351	     83.06224952
     30.65000000	     -6.28245639	     -0.98445108	     -1.18254848	      0.97780949	      0.89387665	      0.74194677	     34.63736354	     -1.81257194	      5.24644505	      6.31958654	      0.11029759	     10.47705537	      5.94301339	     -7.49999987	     -2.31022328	     -1.86870890	      2.97759394	     16.83538012	      0.29383281	     18.95877236	     -6.58674820	     -7.49999987	    -13.59689690	      2.70333142	     -4.48493088	      4.49654078	    -13.29604447	      5.11660952	     25.50572995	     85.22944660	     19.52948144	    -16.65247051	     13.57550360	     33.65864558	     83.18624076
     30.66666670	     -6.55754599	     -1.70380930	     -1.27582241	      0.98109045	      0.89141498	      0.74364887	     34.97758605	     -0.83550858	      5.08912123	      6.77141940	      0.11818356	      9.80095490	      6.40461673	     -7.49999987	     -3.01806373	     -2.96308383	      2.29665112	     17.70752632	      0.30905464	     20.48838381	     -6.20867146	     -7.49999987	    -12.73757445	      3.56290012	     -4.74379078	      4.14232732	    -13.52586099	      4.95569100	     24.97204363	     85.29920331	     19.26018533	    -16.74564608	     13.95458908	     33.36777055	     83.29248682
     30.68333330	     -6.53853265	     -2.22303706	     -1.42107585	      0.98500838	      0.88841457	      0.74505601	     34.89249518	      0.01225137	      4.67805980	      8.05831212	      0.14064408	      8.63948339	      6.44167875	     -7.49999987	     -3.99958364	     -3.76854393	      1.65351717	     18.72843845	      0.32687291	     21.25394844	     -6.39859842	     -7.49999987	    -12.15195762	      4.17735835	     -4.91785751	      3.72184787	    -13.77487088	      4.85503007	     24.64413391	     85.30593657	     18.81578239	    -16.73365555	     14.07163952	     33.13956497	     83.31832602
     30.70000000	     -6.64465993	     -2.92755147	     -1.33048229	      0.98987302	      0.88536290	      0.74628402	     34.59058263	      0.93700105	      3.83368275	      9.48787628	      0.16559468	      7.03028544	      6.09428399	     -7.49999987	     -4.65126583	     -4.90618658	      0.47231189	     20.40714098	      0.35617180	     22.13732310	     -4.88309400	     -7.49999987	    -11.05570858	      5.14217891	     -5.27361481	      3.24447000	    -13.99592588	      4.54711526	     23.66116226	     85.34682711	     18.12288973	    -16.41967131	     14.17187671	     32.31266544	     83.33315402
